<svg width="1013" height="637" viewBox="0 0 1013 637" fill="none" xmlns="http://www.w3.org/2000/svg">
<g clip-path="url(#clip0)">
<path d="M378.793 266.434C378.793 266.434 461.793 270.434 466.793 299.434C471.793 328.434 369.793 302.434 369.793 302.434L378.793 266.434Z" fill="#A0616A"/>
<path d="M247.793 174.434C247.793 174.434 261.793 178.434 272.793 202.434C283.793 226.434 305.793 248.434 305.793 248.434L394.793 265.434L379.793 310.434L294.793 299.434L241.793 269.434L247.793 174.434Z" fill="#575A89"/>
<path opacity="0.1" d="M247.793 174.434C247.793 174.434 261.793 178.434 272.793 202.434C283.793 226.434 305.793 248.434 305.793 248.434L394.793 265.434L379.793 310.434L294.793 299.434L241.793 269.434L247.793 174.434Z" fill="black"/>
<path d="M929.293 92.9343H824.293V94.9343H929.293V92.9343Z" fill="#3F3D56"/>
<path d="M742.293 92.9343H409.293V94.9343H742.293V92.9343Z" fill="#3F3D56"/>
<path d="M819.293 333.934H30.2931V634.934H819.293V333.934Z" fill="#3F3D56"/>
<path d="M115.793 128.434L124.793 185.434L186.793 188.434L179.793 104.434L115.793 128.434Z" fill="#A0616A"/>
<path d="M50.2931 508.934L47.2931 634.934H141.293L155.293 584.934L166.293 634.934H264.293C264.293 634.934 266.293 490.934 255.293 489.934C244.293 488.934 50.2931 508.934 50.2931 508.934Z" fill="#2F2E41"/>
<path d="M135.793 143.434C165.616 143.434 189.793 119.258 189.793 89.4343C189.793 59.6109 165.616 35.4343 135.793 35.4343C105.97 35.4343 81.7931 59.6109 81.7931 89.4343C81.7931 119.258 105.97 143.434 135.793 143.434Z" fill="#A0616A"/>
<path d="M44.7931 514.434L72.7931 376.434L35.7931 193.434L121.007 161.458L162.793 156.434L183.8 152.513L198.793 156.434C198.793 156.434 258.793 171.434 261.793 182.434C264.793 193.434 249.793 283.434 249.793 283.434L235.793 357.434L266.793 490.434C266.793 490.434 137.793 534.434 46.7931 514.434H44.7931Z" fill="#575A89"/>
<path opacity="0.1" d="M82.293 243.934V280.934L200.285 281.095L88.293 268.934L82.293 243.934Z" fill="black"/>
<path opacity="0.1" d="M72.159 346.12L220.293 324.934L72.159 366.89V346.12Z" fill="black"/>
<path opacity="0.1" d="M307.293 248.934L291.412 306.159L318.293 250.822L307.293 248.934Z" fill="black"/>
<path d="M180.234 35.2779L190.164 31.3025C190.164 31.3025 169.401 8.44376 140.514 10.4316L148.638 1.48676C148.638 1.48676 128.778 -6.46402 110.724 14.4069C101.233 25.3782 90.2515 38.2746 83.4059 52.8021H72.7715L77.2099 62.5749L61.6754 72.3478L77.62 70.5924C76.6699 75.9442 76.5241 81.4077 77.1873 86.8025C77.8713 92.199 80.6252 97.1186 84.8677 100.523V100.523C84.8677 100.523 97.1828 75.0321 97.1828 71.0566V80.9952C97.1828 80.9952 107.113 72.0505 107.113 66.0874L112.529 73.0444L115.237 62.112L148.638 73.0444L143.222 64.0998L163.985 67.0813L155.86 56.1488C155.86 56.1488 179.331 69.069 180.234 80.0014C181.137 90.9338 188.007 101.293 188.007 101.293C188.007 101.293 206.413 50.1857 180.234 35.2779Z" fill="#2F2E41"/>
<path d="M617.293 234.934H233.293V635.934H617.293V234.934Z" fill="#D0CDE1"/>
<path d="M557 360H273V400H557V360Z" fill="#F31E1E"/>
<path d="M508.111 428.934H322.116V448.934H508.111V428.934Z" fill="#F31E1E"/>
<path d="M508.47 463.934H322.475V483.934H508.47V463.934Z" fill="#F31E1E"/>
<path d="M415.832 498.934H322.834V518.934H415.832V498.934Z" fill="#F31E1E"/>
<path d="M562.293 599.934H519.293V619.934H562.293V599.934Z" fill="#F31E1E"/>
<path d="M205.793 285.434C205.793 285.434 292.793 272.434 305.793 291.434C318.793 310.434 213.793 320.434 213.793 320.434L205.793 285.434Z" fill="#A0616A"/>
<path d="M45.7931 192.434H39.5272C36.9501 192.427 34.4655 193.394 32.5714 195.141C26.6234 200.664 14.0468 214.916 8.79306 240.434C1.79306 274.434 -10.2069 340.434 16.7931 345.434C43.7931 350.434 220.793 326.434 220.793 326.434L207.793 280.434L79.7931 281.434C79.7931 281.434 81.7931 259.434 77.7931 245.434C73.7931 231.434 45.7931 192.434 45.7931 192.434Z" fill="#575A89"/>
<path d="M409.293 134.934C431.937 134.934 450.293 116.578 450.293 93.9343C450.293 71.2906 431.937 52.9343 409.293 52.9343C386.649 52.9343 368.293 71.2906 368.293 93.9343C368.293 116.578 386.649 134.934 409.293 134.934Z" fill="#D0CDE1"/>
<path d="M596.293 134.934C618.937 134.934 637.293 116.578 637.293 93.9343C637.293 71.2906 618.937 52.9343 596.293 52.9343C573.649 52.9343 555.293 71.2906 555.293 93.9343C555.293 116.578 573.649 134.934 596.293 134.934Z" fill="#F31E1E"/>
<path d="M783.293 135.934C774.986 135.934 766.866 133.471 759.959 128.856C753.052 124.241 747.669 117.681 744.49 110.007C741.311 102.333 740.479 93.8877 742.1 85.7405C743.721 77.5933 747.721 70.1096 753.595 64.2358C759.468 58.362 766.952 54.3619 775.099 52.7413C783.246 51.1207 791.691 51.9525 799.366 55.1314C807.04 58.3102 813.6 63.6935 818.215 70.6004C822.83 77.5072 825.293 85.6275 825.293 93.9343C825.28 105.07 820.851 115.745 812.978 123.619C805.104 131.493 794.428 135.922 783.293 135.934V135.934ZM783.293 53.9343C775.382 53.9343 767.648 56.2803 761.07 60.6755C754.492 65.0708 749.365 71.3179 746.338 78.627C743.31 85.936 742.518 93.9787 744.062 101.738C745.605 109.497 749.415 116.624 755.009 122.219C760.603 127.813 767.73 131.622 775.489 133.166C783.249 134.709 791.291 133.917 798.6 130.889C805.909 127.862 812.157 122.735 816.552 116.157C820.947 109.579 823.293 101.846 823.293 93.9343C823.281 83.3293 819.063 73.1622 811.564 65.6633C804.065 58.1645 793.898 53.9464 783.293 53.9343Z" fill="#3F3D56"/>
<path d="M970.293 135.934C961.986 135.934 953.866 133.471 946.959 128.856C940.052 124.241 934.669 117.681 931.49 110.007C928.311 102.333 927.48 93.8877 929.1 85.7405C930.721 77.5933 934.721 70.1096 940.595 64.2358C946.468 58.362 953.952 54.3619 962.099 52.7413C970.247 51.1207 978.691 51.9525 986.366 55.1314C994.04 58.3102 1000.6 63.6935 1005.21 70.6004C1009.83 77.5072 1012.29 85.6275 1012.29 93.9343C1012.28 105.07 1007.85 115.745 999.978 123.619C992.104 131.493 981.428 135.922 970.293 135.934V135.934ZM970.293 53.9343C962.382 53.9343 954.648 56.2803 948.07 60.6755C941.492 65.0708 936.365 71.3179 933.338 78.627C930.31 85.936 929.518 93.9787 931.062 101.738C932.605 109.497 936.415 116.624 942.009 122.219C947.603 127.813 954.73 131.622 962.489 133.166C970.249 134.709 978.291 133.917 985.6 130.889C992.909 127.862 999.157 122.735 1003.55 116.157C1007.95 109.579 1010.29 101.846 1010.29 93.9343C1010.28 83.3293 1006.06 73.1622 998.564 65.6633C991.065 58.1645 980.898 53.9464 970.293 53.9343Z" fill="#3F3D56"/>
<path d="M403.641 111.377L385.873 87.688L392.273 82.887L404.506 99.197L460.745 42.959L466.401 48.615L403.641 111.377Z" fill="#F31E1E"/>
<path d="M833.09 633.831H16.4957V636.613H833.09V633.831Z" fill="#3F3D56"/>
<path d="M345.033 307.805H335.084V318H328.914V292.406H346.035V297.17H335.084V303.059H345.033V307.805ZM354.578 318H348.637V298.98H354.578V318ZM348.285 294.076C348.285 293.232 348.59 292.541 349.199 292.002C349.809 291.463 350.6 291.193 351.572 291.193C352.545 291.193 353.336 291.463 353.945 292.002C354.555 292.541 354.859 293.232 354.859 294.076C354.859 294.92 354.555 295.611 353.945 296.15C353.336 296.689 352.545 296.959 351.572 296.959C350.6 296.959 349.809 296.689 349.199 296.15C348.59 295.611 348.285 294.92 348.285 294.076ZM364.492 318H358.551V291H364.492V318ZM377.359 318.352C374.441 318.352 372.08 317.484 370.275 315.75C368.471 314.004 367.568 311.736 367.568 308.947V308.455C367.568 306.51 367.926 304.793 368.641 303.305C369.367 301.816 370.422 300.668 371.805 299.859C373.188 299.039 374.828 298.629 376.727 298.629C379.398 298.629 381.508 299.461 383.055 301.125C384.602 302.777 385.375 305.086 385.375 308.051V310.354H373.598C373.809 311.42 374.271 312.258 374.986 312.867C375.701 313.477 376.627 313.781 377.764 313.781C379.639 313.781 381.104 313.125 382.158 311.812L384.865 315.012C384.127 316.031 383.078 316.846 381.719 317.455C380.371 318.053 378.918 318.352 377.359 318.352ZM376.691 303.199C374.957 303.199 373.926 304.348 373.598 306.645H379.574V306.188C379.598 305.238 379.357 304.506 378.854 303.99C378.35 303.463 377.629 303.199 376.691 303.199ZM406.381 303.516L411.092 292.406H417.754L409.51 308.807V318H403.252V308.807L395.025 292.406H401.652L406.381 303.516ZM417.438 308.314C417.438 306.416 417.807 304.729 418.545 303.252C419.283 301.764 420.344 300.621 421.727 299.824C423.109 299.027 424.732 298.629 426.596 298.629C429.443 298.629 431.688 299.514 433.328 301.283C434.969 303.041 435.789 305.438 435.789 308.473V308.684C435.789 311.648 434.963 314.004 433.311 315.75C431.67 317.484 429.443 318.352 426.631 318.352C423.924 318.352 421.75 317.543 420.109 315.926C418.469 314.297 417.584 312.094 417.455 309.316L417.438 308.314ZM423.361 308.684C423.361 310.441 423.637 311.73 424.188 312.551C424.738 313.371 425.553 313.781 426.631 313.781C428.74 313.781 429.818 312.158 429.865 308.912V308.314C429.865 304.904 428.775 303.199 426.596 303.199C424.615 303.199 423.543 304.67 423.379 307.611L423.361 308.684ZM449.729 315.943C448.475 317.549 446.781 318.352 444.648 318.352C442.562 318.352 440.98 317.748 439.902 316.541C438.836 315.322 438.303 313.576 438.303 311.303V298.98H444.227V311.338C444.227 312.967 445.018 313.781 446.6 313.781C447.959 313.781 448.926 313.295 449.5 312.322V298.98H455.459V318H449.904L449.729 315.943ZM470.225 304.342L468.273 304.201C466.41 304.201 465.215 304.787 464.688 305.959V318H458.764V298.98H464.318L464.512 301.424C465.508 299.561 466.896 298.629 468.678 298.629C469.311 298.629 469.861 298.699 470.33 298.84L470.225 304.342ZM500.635 297.17H492.953V318H486.783V297.17H479.242V292.406H500.635V297.17ZM510.742 318C510.531 317.613 510.344 317.045 510.18 316.295C509.09 317.666 507.566 318.352 505.609 318.352C503.816 318.352 502.293 317.812 501.039 316.734C499.785 315.645 499.158 314.279 499.158 312.639C499.158 310.576 499.92 309.018 501.443 307.963C502.967 306.908 505.182 306.381 508.088 306.381H509.916V305.379C509.916 303.633 509.16 302.76 507.648 302.76C506.242 302.76 505.539 303.451 505.539 304.834H499.615C499.615 302.994 500.395 301.5 501.953 300.352C503.523 299.203 505.521 298.629 507.947 298.629C510.373 298.629 512.289 299.221 513.695 300.404C515.102 301.588 515.822 303.211 515.857 305.273V313.693C515.881 315.439 516.15 316.775 516.666 317.701V318H510.742ZM507.033 314.133C507.771 314.133 508.381 313.975 508.861 313.658C509.354 313.342 509.705 312.984 509.916 312.586V309.545H508.193C506.131 309.545 505.1 310.471 505.1 312.322C505.1 312.861 505.281 313.301 505.645 313.641C506.008 313.969 506.471 314.133 507.033 314.133ZM526.861 304.219L529.621 298.98H535.773L530.764 308.244L536.02 318H529.832L526.844 312.375L523.908 318H517.686L522.959 308.244L517.967 298.98H524.189L526.861 304.219Z" fill="#F31E1E"/>
</g>
<defs>
<clipPath id="clip0">
<rect width="1012.29" height="636.613" fill="white"/>
</clipPath>
</defs>
</svg>
